<svg width="40" height="40" viewBox="0 0 40 40" fill="none" xmlns="http://www.w3.org/2000/svg">
<g id="Instagram">
<rect x="0.5" y="0.5" width="39" height="39" rx="19.5" fill="#050505"/>
<rect x="0.5" y="0.5" width="39" height="39" rx="19.5" stroke="white"/>
<g id="Vector">
<path d="M20.0016 10.163C23.2081 10.163 23.5844 10.1773 24.8518 10.2345C26.0238 10.2869 26.6575 10.4823 27.0815 10.649C27.6437 10.8682 28.044 11.1255 28.4632 11.5447C28.8825 11.964 29.1445 12.3642 29.3589 12.9264C29.5209 13.3505 29.721 13.9841 29.7734 15.1562C29.8306 16.4235 29.8449 16.7999 29.8449 20.0064C29.8449 23.2128 29.8306 23.5892 29.7734 24.8565C29.721 26.0286 29.5257 26.6623 29.3589 27.0863C29.1398 27.6485 28.8825 28.0487 28.4632 28.468C28.044 28.8872 27.6437 29.1493 27.0815 29.3637C26.6575 29.5257 26.0238 29.7258 24.8518 29.7782C23.5844 29.8354 23.2081 29.8497 20.0016 29.8497C16.7951 29.8497 16.4187 29.8354 15.1514 29.7782C13.9794 29.7258 13.3457 29.5304 12.9217 29.3637C12.3595 29.1445 11.9592 28.8872 11.54 28.468C11.1207 28.0487 10.8587 27.6485 10.6443 27.0863C10.4823 26.6623 10.2822 26.0286 10.2298 24.8565C10.1726 23.5892 10.1583 23.2128 10.1583 20.0064C10.1583 16.7999 10.1726 16.4235 10.2298 15.1562C10.2822 13.9841 10.4775 13.3505 10.6443 12.9264C10.8634 12.3642 11.1207 11.964 11.54 11.5447C11.9592 11.1255 12.3595 10.8634 12.9217 10.649C13.3457 10.487 13.9794 10.2869 15.1514 10.2345C16.4187 10.1726 16.7999 10.163 20.0016 10.163ZM20.0016 8C16.7427 8 16.333 8.01429 15.0514 8.07147C13.7745 8.12864 12.9026 8.33351 12.1403 8.6289C11.3494 8.93383 10.6824 9.34833 10.0154 10.0154C9.34833 10.6824 8.93859 11.3542 8.6289 12.1403C8.33351 12.9026 8.12864 13.7745 8.07147 15.0561C8.01429 16.333 8 16.7427 8 20.0016C8 23.2605 8.01429 23.6702 8.07147 24.9518C8.12864 26.2287 8.33351 27.1006 8.6289 27.8677C8.93383 28.6586 9.34833 29.3256 10.0154 29.9926C10.6824 30.6596 11.3542 31.0693 12.1403 31.379C12.9026 31.6744 13.7745 31.8793 15.0561 31.9365C16.3378 31.9936 16.7427 32.0079 20.0064 32.0079C23.27 32.0079 23.675 31.9936 24.9566 31.9365C26.2335 31.8793 27.1054 31.6744 27.8724 31.379C28.6633 31.0741 29.3304 30.6596 29.9974 29.9926C30.6644 29.3256 31.0741 28.6538 31.3838 27.8677C31.6792 27.1053 31.8841 26.2335 31.9413 24.9518C31.9984 23.6702 32.0127 23.2652 32.0127 20.0016C32.0127 16.738 31.9984 16.333 31.9413 15.0513C31.8841 13.7745 31.6792 12.9026 31.3838 12.1355C31.0789 11.3446 30.6644 10.6776 29.9974 10.0106C29.3304 9.34357 28.6586 8.93383 27.8724 8.62414C27.1101 8.32875 26.2382 8.12388 24.9566 8.0667C23.6702 8.01429 23.2605 8 20.0016 8Z" fill="white"/>
<path d="M20.0016 10.163C23.2081 10.163 23.5844 10.1773 24.8518 10.2345C26.0238 10.2869 26.6575 10.4823 27.0815 10.649C27.6437 10.8682 28.044 11.1255 28.4632 11.5447C28.8825 11.964 29.1445 12.3642 29.3589 12.9264C29.5209 13.3505 29.721 13.9841 29.7734 15.1562C29.8306 16.4235 29.8449 16.7999 29.8449 20.0064C29.8449 23.2128 29.8306 23.5892 29.7734 24.8565C29.721 26.0286 29.5257 26.6623 29.3589 27.0863C29.1398 27.6485 28.8825 28.0487 28.4632 28.468C28.044 28.8872 27.6437 29.1493 27.0815 29.3637C26.6575 29.5257 26.0238 29.7258 24.8518 29.7782C23.5844 29.8354 23.2081 29.8497 20.0016 29.8497C16.7951 29.8497 16.4187 29.8354 15.1514 29.7782C13.9794 29.7258 13.3457 29.5304 12.9217 29.3637C12.3595 29.1445 11.9592 28.8872 11.54 28.468C11.1207 28.0487 10.8587 27.6485 10.6443 27.0863C10.4823 26.6623 10.2822 26.0286 10.2298 24.8565C10.1726 23.5892 10.1583 23.2128 10.1583 20.0064C10.1583 16.7999 10.1726 16.4235 10.2298 15.1562C10.2822 13.9841 10.4775 13.3505 10.6443 12.9264C10.8634 12.3642 11.1207 11.964 11.54 11.5447C11.9592 11.1255 12.3595 10.8634 12.9217 10.649C13.3457 10.487 13.9794 10.2869 15.1514 10.2345C16.4187 10.1726 16.7999 10.163 20.0016 10.163Z" fill="white"/>
</g>
<path id="Vector_2" d="M20.0011 13.8398C16.5993 13.8398 13.8359 16.5984 13.8359 20.005C13.8359 23.4116 16.5945 26.1702 20.0011 26.1702C23.4077 26.1702 26.1663 23.4116 26.1663 20.005C26.1663 16.5984 23.4077 13.8398 20.0011 13.8398ZM20.0011 24.0024C17.7904 24.0024 15.999 22.2109 15.999 20.0002C15.999 17.7896 17.7904 15.9981 20.0011 15.9981C22.2118 15.9981 24.0032 17.7896 24.0032 20.0002C24.0032 22.2109 22.2118 24.0024 20.0011 24.0024Z" fill="#050505"/>
<path id="Vector_3" d="M26.4115 15.034C27.2062 15.034 27.8504 14.3898 27.8504 13.5951C27.8504 12.8004 27.2062 12.1562 26.4115 12.1562C25.6169 12.1562 24.9727 12.8004 24.9727 13.5951C24.9727 14.3898 25.6169 15.034 26.4115 15.034Z" fill="#050505"/>
</g>
</svg>
