<svg width="40" height="40" viewBox="0 0 40 40" fill="none" xmlns="http://www.w3.org/2000/svg">
<g id="Telegram">
<rect x="0.5" y="0.5" width="39" height="39" rx="19.5" fill="#050505"/>
<rect x="0.5" y="0.5" width="39" height="39" rx="19.5" stroke="white"/>
<path id="Vector" fill-rule="evenodd" clip-rule="evenodd" d="M9.05564 19.7879C14.886 17.2477 18.7739 15.5731 20.7192 14.7639C26.2734 12.4538 27.4275 12.0525 28.1798 12.0392C28.3452 12.0363 28.7151 12.0773 28.9548 12.2717C29.1571 12.4359 29.2128 12.6577 29.2394 12.8134C29.2661 12.969 29.2992 13.3236 29.2729 13.6007C28.9719 16.7632 27.6695 24.4376 27.0069 27.9797C26.7266 29.4784 26.1746 29.9809 25.6401 30.0301C24.4787 30.137 23.5968 29.2626 22.4718 28.5252C20.7116 27.3713 19.7171 26.653 18.0085 25.527C16.0339 24.2258 17.314 23.5106 18.4393 22.3418C18.7338 22.0359 23.8511 17.3813 23.9502 16.9591C23.9625 16.9063 23.974 16.7094 23.8571 16.6055C23.7402 16.5015 23.5676 16.5371 23.443 16.5653C23.2665 16.6054 20.4544 18.4641 15.0069 22.1413C14.2087 22.6894 13.4857 22.9564 12.838 22.9424C12.1239 22.927 10.7502 22.5387 9.72905 22.2067C8.47654 21.7996 7.48108 21.5843 7.56776 20.8929C7.61291 20.5328 8.10887 20.1644 9.05564 19.7879Z" fill="white"/>
</g>
</svg>
